HIERARCHY
ROOT joint_0
{
	OFFSET 0.000000 0.000000 0.000000
	CHANNELS 6 Xposition Yposition Zposition Zrotation Yrotation Xrotation 
	JOINT joint_1
	{
		OFFSET 6.004005 -1.946999 100.587036
		CHANNELS 3 Zrotation Yrotation Xrotation
		JOINT joint_2
		{
			OFFSET -4.601006 -0.824997 91.925903
			CHANNELS 3 Zrotation Yrotation Xrotation
			JOINT joint_3
			{
				OFFSET -5.420998 -1.130005 91.774048
				CHANNELS 3 Zrotation Yrotation Xrotation
				JOINT joint_4
				{
					OFFSET 4.308998 -3.777992 123.473999
					CHANNELS 3 Zrotation Yrotation Xrotation
					JOINT joint_5
					{
						OFFSET 25.565002 -6.305008 79.437988
						CHANNELS 3 Zrotation Yrotation Xrotation
						End Site
						{
							OFFSET 0.000000 0.000000 0.000000
						}
					}
				}
				JOINT joint_6
				{
					OFFSET -1.750000 -28.655998 68.557983
					CHANNELS 3 Zrotation Yrotation Xrotation
					JOINT joint_7
					{
						OFFSET -17.692001 -116.544006 -17.244019
						CHANNELS 3 Zrotation Yrotation Xrotation
						JOINT joint_8
						{
							OFFSET 27.063004 -23.640991 -266.895020
							CHANNELS 3 Zrotation Yrotation Xrotation
							JOINT joint_9
							{
								OFFSET 40.722000 -15.761017 -232.488953
								CHANNELS 3 Zrotation Yrotation Xrotation
								End Site
								{
									OFFSET 0.000000 0.000000 0.000000
								}
							}
						}
					}
				}
				JOINT joint_10
				{
					OFFSET 6.593002 24.457001 69.892944
					CHANNELS 3 Zrotation Yrotation Xrotation
					JOINT joint_11
					{
						OFFSET 24.311996 114.920002 -19.872925
						CHANNELS 3 Zrotation Yrotation Xrotation
						JOINT joint_12
						{
							OFFSET 21.081001 15.319000 -268.037964
							CHANNELS 3 Zrotation Yrotation Xrotation
							JOINT joint_13
							{
								OFFSET 27.794006 -8.947001 -234.744080
								CHANNELS 3 Zrotation Yrotation Xrotation
								End Site
								{
									OFFSET 0.000000 0.000000 0.000000
								}
							}
						}
					}
				}
			}
		}
	}
	JOINT joint_14
	{
		OFFSET -6.627998 -80.520004 -98.790039
		CHANNELS 3 Zrotation Yrotation Xrotation
		JOINT joint_15
		{
			OFFSET -43.638000 -13.751999 -502.538971
			CHANNELS 3 Zrotation Yrotation Xrotation
			JOINT joint_16
			{
				OFFSET -39.532999 -9.912994 -398.071007
				CHANNELS 3 Zrotation Yrotation Xrotation
				JOINT joint_17
				{
					OFFSET 174.940004 -34.660995 -75.688002
					CHANNELS 3 Zrotation Yrotation Xrotation
					End Site
					{
						OFFSET 0.000000 0.000000 0.000000
					}
				}
			}
		}
	}
	JOINT joint_18
	{
		OFFSET 12.591003 79.842003 -98.765015
		CHANNELS 3 Zrotation Yrotation Xrotation
		JOINT joint_19
		{
			OFFSET -39.080002 -1.297001 -503.101013
			CHANNELS 3 Zrotation Yrotation Xrotation
			JOINT joint_20
			{
				OFFSET -51.570000 -0.514000 -396.815987
				CHANNELS 3 Zrotation Yrotation Xrotation
				JOINT joint_21
				{
					OFFSET 178.987999 -11.521999 -73.244003
					CHANNELS 3 Zrotation Yrotation Xrotation
					End Site
					{
						OFFSET 0.000000 0.000000 0.000000
					}
				}
			}
		}
	}
}
MOTION
Frames: 10
Frame Time: 0.016667
-2051.406006 914.966797 1064.780029 1.336511 -0.703324 2.195190 3.181748 3.004716 -2.671810 1.655189 -0.511510 0.562809 1.358867 0.493806 -0.419788 -0.394580 -5.843972 -0.485401 0.000000 0.000000 0.000000 3.643467 2.917202 -1.580956 -1.393540 3.660939 -1.536446 -1.154836 -5.417978 -7.520341 0.000000 0.000000 0.000000 0.840985 1.245239 1.160443 0.226848 1.702570 -1.508674 0.615690 -1.567301 5.471241 0.000000 0.000000 0.000000 1.596766 -13.274893 -7.238884 -1.125748 65.305199 6.748961 1.693429 14.647790 3.021411 0.000000 0.000000 0.000000 -0.559498 -21.966855 -7.250731 1.037334 30.376797 5.625941 2.828115 -2.521064 0.896386 0.000000 0.000000 0.000000 
-2033.889893 915.688843 1065.787964 0.710595 -0.736734 2.625369 3.437011 3.268994 -3.190735 1.620961 -0.609366 0.707720 1.248515 0.560515 -0.497057 -0.339140 -5.860982 -0.647687 0.000000 0.000000 0.000000 3.535649 2.710489 -1.455855 -1.346519 3.357770 -0.900428 -1.166835 -6.081213 -7.780833 0.000000 0.000000 0.000000 0.682561 1.002683 0.864196 0.174401 1.377387 -1.332529 0.639094 -0.709186 5.888935 0.000000 0.000000 0.000000 1.263483 -15.786450 -7.991333 -1.024032 68.271403 6.619069 0.698850 14.071296 2.179980 0.000000 0.000000 0.000000 -0.451575 -20.798345 -7.760115 1.339786 30.385912 5.779972 3.251481 -3.290603 1.002100 0.000000 0.000000 0.000000 
-2016.611450 915.691101 1068.088013 0.109023 -0.518858 2.822931 3.560107 3.224333 -3.504207 1.622867 -0.664118 0.826387 1.187428 0.596094 -0.577458 -0.258726 -5.791565 -0.855363 0.000000 0.000000 0.000000 3.283346 2.481587 -1.231416 -1.263752 3.009976 -0.204647 -1.173166 -6.494697 -7.986352 0.000000 0.000000 0.000000 0.390185 0.780760 0.651783 0.106609 1.120011 -1.196194 0.664540 0.262372 6.401114 0.000000 0.000000 0.000000 0.761676 -18.466913 -8.219662 -0.863326 70.390467 6.462861 -0.092755 12.073151 1.144598 0.000000 0.000000 0.000000 -0.371224 -19.747981 -7.946914 1.567141 30.012272 5.877755 3.547919 -3.850878 1.074669 0.000000 0.000000 0.000000 
-1999.378662 915.360779 1071.035034 -0.363017 -0.296787 2.877166 3.564283 3.114207 -3.649454 1.592097 -0.685311 0.908906 1.111248 0.609131 -0.630781 -0.188017 -5.694970 -1.024130 0.000000 0.000000 0.000000 3.053205 2.305145 -1.027322 -1.171077 2.712127 0.487826 -1.171006 -6.785761 -8.139478 0.000000 0.000000 0.000000 0.112833 0.568257 0.549691 0.029391 0.918404 -1.186681 0.687012 1.195001 6.903237 0.000000 0.000000 0.000000 0.154139 -21.053158 -8.114183 -0.704319 71.720644 6.348978 -0.741361 9.666156 0.275198 0.000000 0.000000 0.000000 -0.331389 -18.586181 -7.939369 1.672874 29.363284 5.897879 3.677984 -4.252506 1.096436 0.000000 0.000000 0.000000 
-1982.046631 914.964478 1074.358032 -0.630924 -0.263831 2.813364 3.460955 3.125369 -3.591570 1.462229 -0.679888 0.929177 0.962503 0.602391 -0.627347 -0.147434 -5.594412 -1.099744 0.000000 0.000000 0.000000 2.973279 2.227047 -0.968100 -1.080512 2.514948 1.160714 -1.159110 -7.009916 -8.232022 0.000000 0.000000 0.000000 -0.042338 0.350454 0.593798 -0.057497 0.771362 -1.419312 0.709976 2.025631 7.385046 0.000000 0.000000 0.000000 -0.502855 -23.308257 -7.798775 -0.592588 72.215535 6.355278 -1.309851 7.476585 -0.260495 0.000000 0.000000 0.000000 -0.347139 -17.096612 -7.765430 1.601505 28.446631 5.810504 3.583028 -4.508843 1.044727 0.000000 0.000000 0.000000 
-1964.690186 914.360901 1078.306030 -0.756616 -0.326711 2.586148 3.246902 3.160301 -3.289922 1.266693 -0.638856 0.878208 0.782544 0.576211 -0.581469 -0.124571 -5.468679 -1.112833 0.000000 0.000000 0.000000 2.978121 2.217439 -1.011802 -0.984069 2.380426 1.840073 -1.141174 -7.118333 -8.271989 0.000000 0.000000 0.000000 -0.135317 0.127102 0.771214 -0.153216 0.678657 -1.857558 0.737581 2.821222 7.883048 0.000000 0.000000 0.000000 -1.189731 -25.282832 -7.218575 -0.527160 71.777823 6.510980 -1.715237 5.268175 -0.553265 0.000000 0.000000 0.000000 -0.411837 -15.362961 -7.346370 1.387403 27.207949 5.611431 3.293071 -4.593789 0.932165 0.000000 0.000000 0.000000 
-1947.372192 913.455933 1082.165039 -0.719538 -0.352061 2.317133 2.960565 3.139379 -2.932545 1.042306 -0.588299 0.791218 0.589258 0.541389 -0.518470 -0.126732 -5.360088 -1.055427 0.000000 0.000000 0.000000 2.979789 2.273789 -1.030432 -0.902330 2.327276 2.450810 -1.123862 -7.226422 -8.315823 0.000000 0.000000 0.000000 -0.194477 -0.066442 1.015318 -0.221150 0.629164 -2.296684 0.762011 3.338754 8.212363 0.000000 0.000000 0.000000 -1.876516 -27.107242 -6.526282 -0.527606 70.588271 6.698858 -1.944751 3.197211 -0.731343 0.000000 0.000000 0.000000 -0.492603 -13.678957 -6.860800 1.107579 25.929190 5.380174 2.927364 -4.542521 0.799990 0.000000 0.000000 0.000000 
-1930.132202 912.197327 1085.535034 -0.490684 -0.228564 2.101910 2.598477 2.973564 -2.678088 0.808037 -0.534810 0.708032 0.390245 0.502052 -0.451842 -0.165490 -5.293080 -0.899509 0.000000 0.000000 0.000000 2.928285 2.402526 -0.933430 -0.851817 2.379944 2.932502 -1.111517 -7.448531 -8.418702 0.000000 0.000000 0.000000 -0.225897 -0.191484 1.309425 -0.233934 0.642456 -2.636129 0.778889 3.344578 8.255753 0.000000 0.000000 0.000000 -2.566957 -28.925409 -5.834823 -0.597451 68.738616 6.817062 -2.026071 1.430559 -0.848039 0.000000 0.000000 0.000000 -0.590346 -12.245458 -6.438448 0.808692 24.756212 5.170061 2.556297 -4.372441 0.672994 0.000000 0.000000 0.000000 
-1912.948242 910.616882 1088.697021 -0.074327 -0.006421 1.899098 2.139486 2.698670 -2.459391 0.548021 -0.472862 0.614896 0.178848 0.454293 -0.370250 -0.237622 -5.248727 -0.648785 0.000000 0.000000 0.000000 2.857989 2.602867 -0.773512 -0.822779 2.528913 3.314207 -1.101261 -7.741673 -8.559872 0.000000 0.000000 0.000000 -0.217015 -0.259965 1.680719 -0.206663 0.725868 -2.961265 0.790980 2.924725 8.100339 0.000000 0.000000 0.000000 -3.240067 -30.631746 -5.124819 -0.729017 66.043717 6.894431 -1.940567 0.115053 -0.876970 0.000000 0.000000 0.000000 -0.733740 -10.952262 -5.999293 0.469361 23.577806 4.942756 2.140201 -4.070038 0.537264 0.000000 0.000000 0.000000 
-1895.816528 908.698547 1091.260986 0.457587 0.232983 1.707301 1.677153 2.414662 -2.253068 0.308621 -0.414298 0.526879 -0.006949 0.407132 -0.300843 -0.314320 -5.244316 -0.399873 0.000000 0.000000 0.000000 2.740247 2.842889 -0.584104 -0.797746 2.725777 3.629886 -1.088369 -7.949428 -8.652040 0.000000 0.000000 0.000000 -0.215924 -0.328658 2.022701 -0.163238 0.782856 -3.171877 0.790707 2.333392 7.805165 0.000000 0.000000 0.000000 -3.786361 -31.969038 -4.453992 -0.922745 62.510321 6.934736 -1.687219 -0.970118 -0.882447 0.000000 0.000000 0.000000 -0.891341 -9.824208 -5.533048 0.122492 22.672239 4.693012 1.714087 -3.798505 0.395139 0.000000 0.000000 0.000000 
